<svg width="300" height="225" viewBox="0 0 300 225" fill="none" xmlns="http://www.w3.org/2000/svg">
<path d="M74.9536 0H224.93V224.92H74.9094L74.9536 0Z" fill="white"/>
<path d="M0 0H74.9665V224.92H0V0ZM224.944 0H299.91V224.92H224.988L224.944 0ZM97.4387 108.711L91.5668 110.773L118.675 136.077C120.75 142.496 117.968 144.417 116.202 147.791L145.606 143.855L144.9 175.25L151.037 175.11L149.668 143.902L179.116 147.651C177.306 143.574 175.672 141.418 177.35 134.905L204.414 111.007L199.69 109.133C195.805 105.947 201.368 93.8572 202.162 86.2193C202.162 86.2193 186.401 91.9829 185.385 88.9371L181.323 80.7369L166.931 97.5122C165.385 97.9339 164.723 97.2779 164.326 95.8721L170.948 60.8221L160.441 67.1011C159.558 67.5229 158.675 67.148 158.145 66.0702L147.99 44.5154L137.571 66.9137C136.776 67.7103 135.982 67.804 135.363 67.2417L125.253 61.2907L131.302 96.0127C130.816 97.4185 129.668 97.7933 128.344 97.0436L114.569 80.5026C112.803 83.5484 111.567 88.5154 109.183 89.64C106.799 90.7177 98.8074 87.5314 93.4653 86.3599C95.3195 93.2949 100.971 104.916 97.4387 108.711Z" fill="#D52B1E"/>
</svg>
