<svg width="51" height="51" viewBox="0 0 51 51" fill="none" xmlns="http://www.w3.org/2000/svg">
<path fill-rule="evenodd" clip-rule="evenodd" d="M8.50207 25.4834C8.50238 22.2119 9.44666 19.0099 11.2216 16.2617C12.9966 13.5135 15.5268 11.3359 18.5087 9.99005C21.4906 8.64422 24.7975 8.18739 28.0326 8.67438C31.2677 9.16136 34.2935 10.5715 36.7471 12.7355C39.2007 14.8995 40.9777 17.7256 41.8649 20.8745C42.7522 24.0234 42.712 27.3615 41.7492 30.4881C40.7863 33.6148 38.9418 36.3972 36.4368 38.5015C33.9319 40.6059 30.8729 41.9427 27.6271 42.3516V29.7334H31.8771C32.4407 29.7334 32.9812 29.5095 33.3797 29.111C33.7782 28.7125 34.0021 28.172 34.0021 27.6084C34.0021 27.0448 33.7782 26.5043 33.3797 26.1058C32.9812 25.7073 32.4407 25.4834 31.8771 25.4834H27.6271V21.2334C27.6271 20.6698 27.851 20.1293 28.2495 19.7308C28.648 19.3323 29.1885 19.1084 29.7521 19.1084H30.8146C31.3782 19.1084 31.9187 18.8845 32.3172 18.486C32.7157 18.0875 32.9396 17.547 32.9396 16.9834C32.9396 16.4198 32.7157 15.8793 32.3172 15.4808C31.9187 15.0823 31.3782 14.8584 30.8146 14.8584H29.7521C28.0613 14.8584 26.4398 15.53 25.2443 16.7256C24.0487 17.9211 23.3771 19.5426 23.3771 21.2334V25.4834H19.1271C18.5635 25.4834 18.023 25.7073 17.6245 26.1058C17.226 26.5043 17.0021 27.0448 17.0021 27.6084C17.0021 28.172 17.226 28.7125 17.6245 29.111C18.023 29.5095 18.5635 29.7334 19.1271 29.7334H23.3771V42.3516C19.2688 41.8336 15.4908 39.8341 12.7521 36.7284C10.0133 33.6226 8.50214 29.6242 8.50207 25.4834ZM25.5021 46.7334C37.2384 46.7334 46.7521 37.2198 46.7521 25.4834C46.7521 13.747 37.2384 4.2334 25.5021 4.2334C13.7657 4.2334 4.25208 13.747 4.25208 25.4834C4.25208 37.2198 13.7657 46.7334 25.5021 46.7334Z" fill="#FFFFEB"/>
</svg>
