<svg width="116" height="117" viewBox="0 0 116 117" fill="none" xmlns="http://www.w3.org/2000/svg">
<path d="M53.0039 94.4341C69.5725 94.4341 83.004 81.0026 83.004 64.434C83.004 47.8655 69.5725 34.434 53.0039 34.434C36.4353 34.434 23.0038 47.8655 23.0038 64.434C23.0038 81.0026 36.4353 94.4341 53.0039 94.4341Z" fill="#000088"/>
<path d="M53.0035 90.6532C67.5009 90.6532 79.2534 78.9007 79.2534 64.4033C79.2534 49.9059 67.5009 38.1534 53.0035 38.1534C38.506 38.1534 26.7535 49.9059 26.7535 64.4033C26.7535 78.9007 38.506 90.6532 53.0035 90.6532Z" fill="white"/>
<path d="M53.0036 69.6687C55.9031 69.6687 58.2536 67.3182 58.2536 64.4187C58.2536 61.5193 55.9031 59.1688 53.0036 59.1688C50.1041 59.1688 47.7536 61.5193 47.7536 64.4187C47.7536 67.3182 50.1041 69.6687 53.0036 69.6687Z" fill="#000088"/>
<path d="M78.8378 69.4058C79.577 69.5031 80.2552 68.9827 80.3525 68.2435C80.4498 67.5043 79.9295 66.8262 79.1903 66.7289C78.4511 66.6316 77.7729 67.1519 77.6756 67.8911C77.5783 68.6303 78.0986 69.3085 78.8378 69.4058Z" fill="#000088"/>
<path d="M53.0024 90.9491L53.8979 75.2783C53.9009 75.2256 53.8993 75.1727 53.893 75.1203C53.7666 74.0669 52.2383 74.0669 52.1119 75.1203C52.1056 75.1727 52.1039 75.2256 52.1069 75.2783L53.0024 90.9491Z" fill="#000088"/>
<path d="M76.7169 75.6426C77.4058 75.928 78.1955 75.6009 78.4808 74.912C78.7661 74.2232 78.439 73.4335 77.7502 73.1482C77.0613 72.8628 76.2716 73.1899 75.9863 73.8788C75.701 74.5676 76.0281 75.3573 76.7169 75.6426Z" fill="#000088"/>
<path d="M46.194 89.7176L51.1148 74.8126C51.1314 74.7624 51.1435 74.7109 51.151 74.6587C51.3015 73.6084 49.8253 73.2129 49.4306 74.1977C49.4109 74.2467 49.3956 74.2974 49.3849 74.3491L46.194 89.7176Z" fill="#000088"/>
<path d="M73.011 81.4594C73.6026 81.9133 74.45 81.8017 74.9039 81.2102C75.3578 80.6187 75.2462 79.7712 74.6547 79.3173C74.0632 78.8634 73.2157 78.975 72.7618 79.5665C72.308 80.158 72.4195 81.0055 73.011 81.4594Z" fill="#000088"/>
<path d="M39.8861 87.107L48.4969 73.9835C48.5259 73.9394 48.5509 73.8927 48.5717 73.8442C48.9889 72.8687 47.6654 72.1046 47.0292 72.9536C46.9976 72.9959 46.9697 73.0409 46.9459 73.088L39.8861 87.107Z" fill="#000088"/>
<path d="M67.9042 85.8799C68.3581 86.4714 69.2055 86.583 69.7971 86.1291C70.3886 85.6752 70.5001 84.8277 70.0462 84.2362C69.5924 83.6447 68.7449 83.5332 68.1534 83.987C67.5619 84.4409 67.4503 85.2884 67.9042 85.8799Z" fill="#000088"/>
<path d="M34.4447 82.8616L46.1588 72.414C46.1982 72.3788 46.2344 72.3402 46.2671 72.2987C46.9226 71.4644 45.8419 70.3838 45.0076 71.0393C44.9661 71.0719 44.9276 71.1081 44.8924 71.1476L34.4447 82.8616Z" fill="#000088"/>
<path d="M61.7765 89.2453C62.0619 89.9341 62.8516 90.2612 63.5404 89.9759C64.2292 89.6906 64.5563 88.9009 64.271 88.212C63.9857 87.5232 63.196 87.1961 62.5072 87.4814C61.8183 87.7667 61.4912 88.5564 61.7765 89.2453Z" fill="#000088"/>
<path d="M30.2524 77.6464L44.2714 70.5865C44.3186 70.5627 44.3636 70.5349 44.4058 70.5032C45.2549 69.867 44.4908 68.5435 43.5153 68.9607C43.4667 68.9815 43.4201 69.0065 43.376 69.0355L30.2524 77.6464Z" fill="#000088"/>
<path d="M55.0613 90.5482C55.1586 91.2874 55.8368 91.8077 56.576 91.7104C57.3152 91.6131 57.8355 90.935 57.7382 90.1957C57.6409 89.4565 56.9628 88.9362 56.2236 89.0335C55.4844 89.1308 54.964 89.809 55.0613 90.5482Z" fill="#000088"/>
<path d="M27.6268 71.1348L42.9954 67.9439C43.0471 67.9331 43.0977 67.9179 43.1467 67.8982C44.1315 67.5035 43.736 66.0273 42.6857 66.1778C42.6335 66.1853 42.582 66.1974 42.5318 66.2139L27.6268 71.1348Z" fill="#000088"/>
<path d="M48.2234 90.0696C48.1261 90.8088 48.6465 91.4869 49.3857 91.5842C50.1249 91.6816 50.803 91.1612 50.9003 90.422C50.9976 89.6828 50.4773 89.0047 49.7381 88.9073C48.9989 88.81 48.3207 89.3304 48.2234 90.0696Z" fill="#000088"/>
<path d="M26.755 64.2082L42.4257 65.1036C42.4784 65.1067 42.5313 65.105 42.5838 65.0987C43.6372 64.9723 43.6372 63.444 42.5838 63.3176C42.5313 63.3113 42.4784 63.3097 42.4257 63.3127L26.755 64.2082Z" fill="#000088"/>
<path d="M41.6887 87.8887C41.4033 88.5776 41.7304 89.3673 42.4193 89.6526C43.1081 89.9379 43.8978 89.6108 44.1831 88.922C44.4685 88.2332 44.1414 87.4434 43.4525 87.1581C42.7637 86.8728 41.974 87.1999 41.6887 87.8887Z" fill="#000088"/>
<path d="M27.6353 57.3528L42.5403 62.2736C42.5905 62.2902 42.642 62.3023 42.6942 62.3098C43.7445 62.4603 44.14 60.9841 43.1552 60.5894C43.1062 60.5697 43.0555 60.5544 43.0038 60.5437L27.6353 57.3528Z" fill="#000088"/>
<path d="M35.9388 84.7221C35.4849 85.3136 35.5965 86.1611 36.188 86.615C36.7795 87.0689 37.627 86.9573 38.0809 86.3658C38.5348 85.7743 38.4232 84.9268 37.8317 84.4729C37.2402 84.019 36.3927 84.1306 35.9388 84.7221Z" fill="#000088"/>
<path d="M30.2671 51.5976L43.3906 60.2085C43.4348 60.2375 43.4814 60.2625 43.53 60.2832C44.5055 60.7005 45.2696 59.377 44.4205 58.7408C44.3782 58.7091 44.3333 58.6812 44.2861 58.6575L30.2671 51.5976Z" fill="#000088"/>
<path d="M31.3596 79.4818C30.7681 79.9357 30.6565 80.7832 31.1104 81.3747C31.5643 81.9662 32.4118 82.0778 33.0033 81.6239C33.5948 81.17 33.7063 80.3226 33.2525 79.731C32.7986 79.1395 31.9511 79.028 31.3596 79.4818Z" fill="#000088"/>
<path d="M34.4367 46.0856L44.8844 57.7997C44.9195 57.8391 44.9581 57.8753 44.9996 57.9079C45.8339 58.5634 46.9145 57.4828 46.259 56.6485C46.2264 56.607 46.1902 56.5684 46.1508 56.5333L34.4367 46.0856Z" fill="#000088"/>
<path d="M28.2339 73.3416C27.5451 73.6269 27.2179 74.4166 27.5033 75.1055C27.7886 75.7943 28.5783 76.1214 29.2671 75.8361C29.9559 75.5508 30.283 74.7611 29.9977 74.0722C29.7124 73.3834 28.9227 73.0563 28.2339 73.3416Z" fill="#000088"/>
<path d="M39.8796 41.7855L46.9395 55.8045C46.9633 55.8517 46.9911 55.8967 47.0228 55.9389C47.659 56.788 48.9825 56.0239 48.5653 55.0484C48.5445 54.9998 48.5195 54.9532 48.4905 54.909L39.8796 41.7855Z" fill="#000088"/>
<path d="M26.7821 66.6205C26.0429 66.7178 25.5226 67.3959 25.6199 68.1351C25.7172 68.8743 26.3954 69.3947 27.1346 69.2974C27.8738 69.2 28.3941 68.5219 28.2968 67.7827C28.1995 67.0435 27.5214 66.5231 26.7821 66.6205Z" fill="#000088"/>
<path d="M46.1886 39.2008L49.3795 54.5693C49.3902 54.621 49.4055 54.6717 49.4252 54.7207C49.8199 55.7055 51.2961 55.31 51.1456 54.2597C51.1381 54.2075 51.126 54.1559 51.1094 54.1058L46.1886 39.2008Z" fill="#000088"/>
<path d="M27.1621 59.5946C26.4229 59.4973 25.7448 60.0176 25.6474 60.7568C25.5501 61.496 26.0705 62.1742 26.8097 62.2715C27.5489 62.3688 28.227 61.8484 28.3243 61.1092C28.4217 60.37 27.9013 59.6919 27.1621 59.5946Z" fill="#000088"/>
<path d="M52.9975 38.0513L52.102 53.722C52.099 53.7748 52.1007 53.8276 52.107 53.8801C52.2334 54.9335 53.7617 54.9335 53.8881 53.8801C53.8944 53.8276 53.896 53.7748 53.893 53.722L52.9975 38.0513Z" fill="#000088"/>
<path d="M29.2821 53.3577C28.5933 53.0724 27.8036 53.3995 27.5182 54.0883C27.2329 54.7772 27.56 55.5669 28.2489 55.8522C28.9377 56.1375 29.7274 55.8104 30.0127 55.1216C30.298 54.4328 29.9709 53.643 29.2821 53.3577Z" fill="#000088"/>
<path d="M59.8054 39.2847L54.8846 54.1897C54.868 54.2399 54.8559 54.2914 54.8484 54.3437C54.6979 55.3939 56.1741 55.7894 56.5688 54.8046C56.5885 54.7556 56.6038 54.705 56.6145 54.6533L59.8054 39.2847Z" fill="#000088"/>
<path d="M32.9897 47.4544C32.3982 47.0005 31.5508 47.1121 31.0969 47.7036C30.643 48.2951 30.7546 49.1426 31.3461 49.5964C31.9376 50.0503 32.7851 49.9388 33.2389 49.3472C33.6928 48.7557 33.5813 47.9083 32.9897 47.4544Z" fill="#000088"/>
<path d="M66.1142 41.8067L57.5034 54.9302C57.4744 54.9743 57.4494 55.021 57.4286 55.0695C57.0114 56.045 58.3349 56.8091 58.9711 55.9601C59.0027 55.9178 59.0306 55.8728 59.0544 55.8257L66.1142 41.8067Z" fill="#000088"/>
<path d="M38.0996 43.0889C37.6458 42.4974 36.7983 42.3858 36.2068 42.8397C35.6153 43.2935 35.5037 44.141 35.9576 44.7325C36.4115 45.324 37.2589 45.4356 37.8504 44.9817C38.4419 44.5278 38.5535 43.6804 38.0996 43.0889Z" fill="#000088"/>
<path d="M71.5576 46.113L59.8435 56.5607C59.8041 56.5959 59.7679 56.6344 59.7353 56.676C59.0798 57.5102 60.1604 58.5909 60.9947 57.9354C61.0362 57.9027 61.0748 57.8665 61.1099 57.8271L71.5576 46.113Z" fill="#000088"/>
<path d="M44.2219 39.8076C43.9366 39.1188 43.1468 38.7917 42.458 39.077C41.7692 39.3623 41.4421 40.1521 41.7274 40.8409C42.0127 41.5297 42.8024 41.8568 43.4913 41.5715C44.1801 41.2862 44.5072 40.4965 44.2219 39.8076Z" fill="#000088"/>
<path d="M75.7468 51.4085L61.7278 58.4683C61.6806 58.4921 61.6356 58.5199 61.5934 58.5516C60.7443 59.1878 61.5084 60.5113 62.4839 60.0941C62.5325 60.0733 62.5791 60.0483 62.6232 60.0193L75.7468 51.4085Z" fill="#000088"/>
<path d="M50.9373 38.66C50.84 37.9208 50.1619 37.4005 49.4227 37.4978C48.6835 37.5951 48.1631 38.2732 48.2604 39.0124C48.3578 39.7516 49.0359 40.272 49.7751 40.1747C50.5143 40.0774 51.0347 39.3992 50.9373 38.66Z" fill="#000088"/>
<path d="M78.3738 58.0734L63.0053 61.2643C62.9536 61.2751 62.9029 61.2903 62.8539 61.31C61.8691 61.7047 62.2646 63.1809 63.3149 63.0304C63.3671 63.0229 63.4186 63.0108 63.4688 62.9942L78.3738 58.0734Z" fill="#000088"/>
<path d="M57.7772 38.9647C57.8745 38.2254 57.3541 37.5473 56.6149 37.45C55.8757 37.3527 55.1976 37.873 55.1003 38.6122C55.003 39.3514 55.5233 40.0296 56.2625 40.1269C57.0017 40.2242 57.6799 39.7039 57.7772 38.9647Z" fill="#000088"/>
<path d="M79.2405 64.8261L63.5697 63.9306C63.517 63.9276 63.4641 63.9292 63.4117 63.9355C62.3582 64.0619 62.3582 65.5902 63.4117 65.7166C63.4641 65.7229 63.517 65.7246 63.5697 65.7215L79.2405 64.8261Z" fill="#000088"/>
<path d="M64.3092 41.0236C64.5945 40.3347 64.2674 39.545 63.5786 39.2597C62.8898 38.9744 62.1 39.3015 61.8147 39.9903C61.5294 40.6791 61.8565 41.4688 62.5453 41.7542C63.2342 42.0395 64.0239 41.7124 64.3092 41.0236Z" fill="#000088"/>
<path d="M78.3608 71.5517L63.4558 66.6309C63.4056 66.6143 63.3541 66.6022 63.3019 66.5947C62.2516 66.4442 61.8561 67.9204 62.8409 68.3151C62.8899 68.3348 62.9405 68.35 62.9922 68.3608L78.3608 71.5517Z" fill="#000088"/>
<path d="M70.0658 44.3345C70.5196 43.743 70.4081 42.8955 69.8166 42.4416C69.225 41.9877 68.3776 42.0993 67.9237 42.6908C67.4698 43.2823 67.5814 44.1298 68.1729 44.5837C68.7644 45.0376 69.6119 44.926 70.0658 44.3345Z" fill="#000088"/>
<path d="M75.7355 77.459L62.6119 68.8481C62.5678 68.8191 62.5212 68.7941 62.4726 68.7733C61.4971 68.3561 60.733 69.6796 61.5821 70.3158C61.6243 70.3475 61.6693 70.3753 61.7165 70.3991L75.7355 77.459Z" fill="#000088"/>
<path d="M74.6388 49.5295C75.2303 49.0756 75.3419 48.2282 74.888 47.6367C74.4341 47.0452 73.5867 46.9336 72.9952 47.3875C72.4036 47.8413 72.2921 48.6888 72.746 49.2803C73.1998 49.8718 74.0473 49.9834 74.6388 49.5295Z" fill="#000088"/>
<path d="M71.5589 82.9219L61.1112 71.2078C61.0761 71.1684 61.0375 71.1321 60.996 71.0995C60.1617 70.444 59.0811 71.5247 59.7366 72.3589C59.7692 72.4005 59.8054 72.439 59.8448 72.4742L71.5589 82.9219Z" fill="#000088"/>
<path d="M77.7662 55.6459C78.455 55.3606 78.7822 54.5709 78.4968 53.882C78.2115 53.1932 77.4218 52.8661 76.733 53.1514C76.0441 53.4367 75.717 54.2264 76.0023 54.9153C76.2877 55.6041 77.0774 55.9312 77.7662 55.6459Z" fill="#000088"/>
<path d="M66.1208 87.202L59.061 73.183C59.0372 73.1358 59.0094 73.0908 58.9777 73.0486C58.3415 72.1995 57.018 72.9636 57.4352 73.9391C57.456 73.9877 57.481 74.0343 57.51 74.0784L66.1208 87.202Z" fill="#000088"/>
<path d="M79.2152 62.3041C79.9544 62.2068 80.4747 61.5286 80.3774 60.7894C80.2801 60.0502 79.6019 59.5299 78.8627 59.6272C78.1235 59.7245 77.6032 60.4027 77.7005 61.1419C77.7978 61.8811 78.476 62.4014 79.2152 62.3041Z" fill="#000088"/>
<path d="M59.8088 89.7238L56.6179 74.3553C56.6071 74.3036 56.5919 74.2529 56.5722 74.2039C56.1775 73.2191 54.7013 73.6146 54.8518 74.6649C54.8593 74.7172 54.8714 74.7687 54.888 74.8188L59.8088 89.7238Z" fill="#000088"/>
</svg>
