<svg width="300" height="225" viewBox="0 0 300 225" fill="none" xmlns="http://www.w3.org/2000/svg">
<path d="M0 3C0 1.34315 1.34315 0 3 0H297C298.657 0 300 1.34315 300 3V72C300 73.6569 298.657 75 297 75H3C1.34314 75 0 73.6569 0 72V3Z" fill="#FF9933"/>
<path d="M0 78C0 76.3431 1.34315 75 3 75H297C298.657 75 300 76.3431 300 78V147C300 148.657 298.657 150 297 150H3C1.34314 150 0 148.657 0 147V78Z" fill="white"/>
<path d="M0 153C0 151.343 1.34315 150 3 150H297C298.657 150 300 151.343 300 153V222C300 223.657 298.657 225 297 225H3C1.34314 225 0 223.657 0 222V153Z" fill="#128807"/>
<path d="M150.004 142.434C166.572 142.434 180.004 129.002 180.004 112.434C180.004 95.8651 166.572 82.4336 150.004 82.4336C133.435 82.4336 120.004 95.8651 120.004 112.434C120.004 129.002 133.435 142.434 150.004 142.434Z" fill="#000088"/>
<path d="M150.003 138.653C164.501 138.653 176.253 126.901 176.253 112.403C176.253 97.9058 164.501 86.1533 150.003 86.1533C135.506 86.1533 123.754 97.9058 123.754 112.403C123.754 126.901 135.506 138.653 150.003 138.653Z" fill="white"/>
<path d="M150.004 117.669C152.903 117.669 155.254 115.318 155.254 112.419C155.254 109.519 152.903 107.169 150.004 107.169C147.104 107.169 144.754 109.519 144.754 112.419C144.754 115.318 147.104 117.669 150.004 117.669Z" fill="#000088"/>
<path d="M175.838 117.406C176.577 117.503 177.255 116.983 177.352 116.244C177.45 115.504 176.929 114.826 176.19 114.729C175.451 114.632 174.773 115.152 174.675 115.891C174.578 116.63 175.098 117.309 175.838 117.406Z" fill="#000088"/>
<path d="M150.002 138.949L150.898 123.278C150.901 123.226 150.899 123.173 150.893 123.12C150.766 122.067 149.238 122.067 149.112 123.12C149.105 123.173 149.104 123.226 149.107 123.278L150.002 138.949Z" fill="#000088"/>
<path d="M173.717 123.643C174.406 123.928 175.195 123.601 175.481 122.912C175.766 122.223 175.439 121.434 174.75 121.148C174.061 120.863 173.272 121.19 172.986 121.879C172.701 122.568 173.028 123.358 173.717 123.643Z" fill="#000088"/>
<path d="M143.194 137.717L148.115 122.812C148.131 122.762 148.143 122.71 148.151 122.658C148.301 121.608 146.825 121.212 146.43 122.197C146.411 122.246 146.396 122.297 146.385 122.349L143.194 137.717Z" fill="#000088"/>
<path d="M170.011 129.459C170.602 129.913 171.45 129.801 171.904 129.21C172.358 128.618 172.246 127.771 171.655 127.317C171.063 126.863 170.216 126.975 169.762 127.566C169.308 128.158 169.419 129.005 170.011 129.459Z" fill="#000088"/>
<path d="M136.886 135.107L145.497 121.983C145.526 121.939 145.551 121.892 145.572 121.844C145.989 120.868 144.665 120.104 144.029 120.953C143.997 120.995 143.97 121.04 143.946 121.088L136.886 135.107Z" fill="#000088"/>
<path d="M164.904 133.879C165.358 134.47 166.205 134.582 166.797 134.128C167.388 133.674 167.5 132.827 167.046 132.235C166.592 131.644 165.745 131.532 165.153 131.986C164.562 132.44 164.45 133.287 164.904 133.879Z" fill="#000088"/>
<path d="M131.445 130.861L143.159 120.413C143.198 120.378 143.234 120.339 143.267 120.298C143.922 119.464 142.842 118.383 142.008 119.038C141.966 119.071 141.927 119.107 141.892 119.147L131.445 130.861Z" fill="#000088"/>
<path d="M158.776 137.245C159.062 137.934 159.851 138.261 160.54 137.976C161.229 137.691 161.556 136.901 161.271 136.212C160.986 135.523 160.196 135.196 159.507 135.481C158.818 135.767 158.491 136.557 158.776 137.245Z" fill="#000088"/>
<path d="M127.252 125.646L141.271 118.586C141.318 118.562 141.363 118.534 141.406 118.502C142.255 117.866 141.491 116.543 140.515 116.96C140.467 116.981 140.42 117.006 140.376 117.035L127.252 125.646Z" fill="#000088"/>
<path d="M152.061 138.548C152.159 139.287 152.837 139.808 153.576 139.711C154.315 139.613 154.835 138.935 154.738 138.196C154.641 137.457 153.963 136.936 153.223 137.034C152.484 137.131 151.964 137.809 152.061 138.548Z" fill="#000088"/>
<path d="M124.627 119.135L139.995 115.944C140.047 115.933 140.098 115.918 140.147 115.898C141.131 115.504 140.736 114.027 139.686 114.178C139.633 114.185 139.582 114.198 139.532 114.214L124.627 119.135Z" fill="#000088"/>
<path d="M145.223 138.07C145.126 138.809 145.646 139.487 146.386 139.585C147.125 139.682 147.803 139.162 147.9 138.422C147.998 137.683 147.477 137.005 146.738 136.908C145.999 136.81 145.321 137.331 145.223 138.07Z" fill="#000088"/>
<path d="M123.755 112.209L139.426 113.104C139.478 113.107 139.531 113.105 139.584 113.099C140.637 112.973 140.637 111.444 139.584 111.318C139.531 111.312 139.478 111.31 139.426 111.313L123.755 112.209Z" fill="#000088"/>
<path d="M138.689 135.888C138.403 136.577 138.731 137.366 139.419 137.652C140.108 137.937 140.898 137.61 141.183 136.921C141.469 136.232 141.141 135.443 140.453 135.157C139.764 134.872 138.974 135.199 138.689 135.888Z" fill="#000088"/>
<path d="M124.635 105.353L139.54 110.274C139.59 110.29 139.642 110.302 139.694 110.31C140.744 110.46 141.14 108.984 140.155 108.589C140.106 108.57 140.055 108.554 140.004 108.544L124.635 105.353Z" fill="#000088"/>
<path d="M132.939 132.722C132.485 133.314 132.596 134.161 133.188 134.615C133.779 135.069 134.627 134.957 135.081 134.366C135.535 133.774 135.423 132.927 134.832 132.473C134.24 132.019 133.393 132.131 132.939 132.722Z" fill="#000088"/>
<path d="M127.267 99.5978L140.391 108.209C140.435 108.238 140.481 108.263 140.53 108.283C141.505 108.701 142.27 107.377 141.421 106.741C141.378 106.709 141.333 106.681 141.286 106.658L127.267 99.5978Z" fill="#000088"/>
<path d="M128.36 127.483C127.768 127.936 127.656 128.784 128.11 129.375C128.564 129.967 129.412 130.078 130.003 129.625C130.595 129.171 130.706 128.323 130.252 127.732C129.799 127.14 128.951 127.029 128.36 127.483Z" fill="#000088"/>
<path d="M131.437 94.0858L141.884 105.8C141.919 105.839 141.958 105.876 141.999 105.908C142.834 106.564 143.914 105.483 143.259 104.649C143.226 104.607 143.19 104.569 143.151 104.534L131.437 94.0858Z" fill="#000088"/>
<path d="M125.234 121.341C124.545 121.627 124.218 122.417 124.503 123.105C124.789 123.794 125.578 124.121 126.267 123.836C126.956 123.551 127.283 122.761 126.998 122.072C126.712 121.383 125.923 121.056 125.234 121.341Z" fill="#000088"/>
<path d="M136.88 89.7856L143.94 103.805C143.963 103.852 143.991 103.897 144.023 103.939C144.659 104.788 145.983 104.024 145.565 103.048C145.545 103 145.519 102.953 145.491 102.909L136.88 89.7856Z" fill="#000088"/>
<path d="M123.782 114.62C123.043 114.718 122.522 115.396 122.62 116.135C122.717 116.874 123.395 117.395 124.134 117.297C124.874 117.2 125.394 116.522 125.297 115.783C125.199 115.043 124.521 114.523 123.782 114.62Z" fill="#000088"/>
<path d="M143.188 87.201L146.379 102.57C146.39 102.621 146.405 102.672 146.425 102.721C146.82 103.706 148.296 103.31 148.145 102.26C148.138 102.208 148.126 102.156 148.109 102.106L143.188 87.201Z" fill="#000088"/>
<path d="M124.162 107.595C123.423 107.498 122.745 108.018 122.648 108.757C122.55 109.497 123.071 110.175 123.81 110.272C124.549 110.369 125.227 109.849 125.324 109.11C125.422 108.371 124.901 107.692 124.162 107.595Z" fill="#000088"/>
<path d="M149.998 86.0518L149.102 101.723C149.099 101.775 149.101 101.828 149.107 101.881C149.233 102.934 150.762 102.934 150.888 101.881C150.894 101.828 150.896 101.775 150.893 101.723L149.998 86.0518Z" fill="#000088"/>
<path d="M126.282 101.358C125.593 101.073 124.804 101.4 124.518 102.089C124.233 102.777 124.56 103.567 125.249 103.853C125.938 104.138 126.727 103.811 127.013 103.122C127.298 102.433 126.971 101.643 126.282 101.358Z" fill="#000088"/>
<path d="M156.805 87.2849L151.885 102.19C151.868 102.24 151.856 102.292 151.848 102.344C151.698 103.394 153.174 103.79 153.569 102.805C153.588 102.756 153.604 102.705 153.615 102.653L156.805 87.2849Z" fill="#000088"/>
<path d="M129.99 95.4551C129.398 95.0012 128.551 95.1127 128.097 95.7043C127.643 96.2958 127.755 97.1432 128.346 97.5971C128.938 98.051 129.785 97.9394 130.239 97.3479C130.693 96.7564 130.581 95.9089 129.99 95.4551Z" fill="#000088"/>
<path d="M163.114 89.8075L154.503 102.931C154.474 102.975 154.449 103.022 154.429 103.07C154.011 104.046 155.335 104.81 155.971 103.961C156.003 103.919 156.031 103.874 156.054 103.827L163.114 89.8075Z" fill="#000088"/>
<path d="M135.1 91.089C134.646 90.4975 133.798 90.386 133.207 90.8399C132.615 91.2937 132.504 92.1412 132.958 92.7327C133.411 93.3242 134.259 93.4358 134.85 92.9819C135.442 92.528 135.554 91.6806 135.1 91.089Z" fill="#000088"/>
<path d="M168.558 94.1138L156.844 104.562C156.804 104.597 156.768 104.635 156.735 104.677C156.08 105.511 157.16 106.592 157.995 105.936C158.036 105.904 158.075 105.867 158.11 105.828L168.558 94.1138Z" fill="#000088"/>
<path d="M141.222 87.8084C140.937 87.1195 140.147 86.7924 139.458 87.0778C138.769 87.3631 138.442 88.1528 138.727 88.8416C139.013 89.5305 139.802 89.8576 140.491 89.5722C141.18 89.2869 141.507 88.4972 141.222 87.8084Z" fill="#000088"/>
<path d="M172.747 99.4091L158.728 106.469C158.681 106.493 158.636 106.521 158.593 106.552C157.744 107.188 158.508 108.512 159.484 108.095C159.533 108.074 159.579 108.049 159.623 108.02L172.747 99.4091Z" fill="#000088"/>
<path d="M147.937 86.6607C147.84 85.9215 147.162 85.4011 146.423 85.4985C145.683 85.5958 145.163 86.2739 145.26 87.0131C145.358 87.7523 146.036 88.2727 146.775 88.1754C147.514 88.078 148.035 87.3999 147.937 86.6607Z" fill="#000088"/>
<path d="M175.374 106.074L160.005 109.265C159.954 109.276 159.903 109.291 159.854 109.311C158.869 109.705 159.265 111.182 160.315 111.031C160.367 111.024 160.419 111.011 160.469 110.995L175.374 106.074Z" fill="#000088"/>
<path d="M154.777 86.9642C154.875 86.225 154.354 85.5468 153.615 85.4495C152.876 85.3522 152.198 85.8725 152.101 86.6117C152.003 87.351 152.524 88.0291 153.263 88.1264C154.002 88.2237 154.68 87.7034 154.777 86.9642Z" fill="#000088"/>
<path d="M176.241 112.826L160.57 111.93C160.517 111.927 160.464 111.929 160.412 111.935C159.358 112.061 159.358 113.59 160.412 113.716C160.464 113.722 160.517 113.724 160.57 113.721L176.241 112.826Z" fill="#000088"/>
<path d="M161.309 89.0243C161.595 88.3355 161.268 87.5457 160.579 87.2604C159.89 86.9751 159.1 87.3022 158.815 87.991C158.53 88.6799 158.857 89.4696 159.545 89.7549C160.234 90.0402 161.024 89.7131 161.309 89.0243Z" fill="#000088"/>
<path d="M175.361 119.552L160.456 114.631C160.406 114.614 160.354 114.602 160.302 114.595C159.252 114.444 158.856 115.92 159.841 116.315C159.89 116.335 159.941 116.35 159.992 116.361L175.361 119.552Z" fill="#000088"/>
<path d="M167.066 92.3344C167.52 91.7428 167.408 90.8954 166.817 90.4415C166.225 89.9876 165.378 90.0992 164.924 90.6907C164.47 91.2822 164.581 92.1297 165.173 92.5836C165.764 93.0374 166.612 92.9259 167.066 92.3344Z" fill="#000088"/>
<path d="M172.735 125.459L159.612 116.848C159.568 116.819 159.521 116.794 159.473 116.773C158.497 116.356 157.733 117.679 158.582 118.316C158.624 118.347 158.669 118.375 158.716 118.399L172.735 125.459Z" fill="#000088"/>
<path d="M171.639 97.5302C172.23 97.0763 172.342 96.2288 171.888 95.6373C171.434 95.0458 170.587 94.9343 169.995 95.3881C169.404 95.842 169.292 96.6895 169.746 97.281C170.2 97.8725 171.047 97.9841 171.639 97.5302Z" fill="#000088"/>
<path d="M168.559 130.922L158.111 119.208C158.076 119.168 158.038 119.132 157.996 119.1C157.162 118.444 156.081 119.525 156.737 120.359C156.769 120.401 156.805 120.439 156.845 120.474L168.559 130.922Z" fill="#000088"/>
<path d="M174.766 103.646C175.455 103.361 175.782 102.571 175.497 101.882C175.212 101.193 174.422 100.866 173.733 101.151C173.044 101.437 172.717 102.226 173.002 102.915C173.288 103.604 174.077 103.931 174.766 103.646Z" fill="#000088"/>
<path d="M163.121 135.202L156.061 121.183C156.037 121.136 156.009 121.091 155.978 121.048C155.341 120.199 154.018 120.963 154.435 121.939C154.456 121.987 154.481 122.034 154.51 122.078L163.121 135.202Z" fill="#000088"/>
<path d="M176.215 110.304C176.954 110.207 177.475 109.529 177.377 108.79C177.28 108.051 176.602 107.53 175.863 107.628C175.124 107.725 174.603 108.403 174.701 109.142C174.798 109.881 175.476 110.402 176.215 110.304Z" fill="#000088"/>
<path d="M156.809 137.724L153.618 122.355C153.607 122.304 153.592 122.253 153.572 122.204C153.177 121.219 151.701 121.615 151.852 122.665C151.859 122.717 151.871 122.769 151.888 122.819L156.809 137.724Z" fill="#000088"/>
</svg>
