<svg width="40" height="36" viewBox="0 0 40 36" fill="none" xmlns="http://www.w3.org/2000/svg">
<path fill-rule="evenodd" clip-rule="evenodd" d="M31.1911 6.29354C30.4479 5.22406 28.4605 3.72088 25.2416 4.36931C23.3636 4.74615 22.2415 5.67459 21.5278 6.89987C20.7678 8.20515 20.3994 9.97991 20.3994 12.0452C20.3994 12.6036 20.1776 13.139 19.7828 13.5339C19.3879 13.9287 18.8525 14.1505 18.2941 14.1505C13.313 14.1505 8.57186 12.6705 4.58233 8.66831C4.28113 10.2921 4.1625 11.9445 4.22864 13.5947C4.34022 15.881 4.88549 18.1737 6.18025 20.1379C7.45395 22.0685 9.54872 23.8369 13.0519 24.9485C13.3952 25.0574 13.7048 25.2526 13.9511 25.5153C14.1974 25.778 14.3723 26.0995 14.4589 26.449C14.5455 26.7986 14.5409 27.1645 14.4457 27.5118C14.3505 27.8592 14.1678 28.1762 13.9151 28.4328C12.793 29.5837 11.5212 30.5786 10.134 31.3907C12.3656 31.6223 14.5172 31.6392 16.513 31.4581C20.5552 31.0918 23.7742 29.936 25.7868 28.3002C30.0248 24.8643 32.2922 19.74 31.8711 11.1547C31.7995 9.74412 33.1617 8.22199 33.8185 7.06619C32.8269 7.25145 31.8332 7.21777 31.1911 6.29354ZM3.35284 2.07243C3.73401 2.02814 4.12004 2.08886 4.4692 2.24804C4.81836 2.40722 5.11737 2.65881 5.33392 2.9756C8.44133 7.52093 12.1719 9.41148 16.313 9.84096C16.5151 8.07041 16.993 6.32091 17.892 4.77984C19.2099 2.51876 21.3531 0.855575 24.4142 0.240829C28.6458 -0.609708 31.8669 0.922944 33.7343 2.79876L37.507 2.09349C37.9018 2.01951 38.3095 2.06002 38.682 2.21022C39.0545 2.36042 39.3763 2.61405 39.6093 2.94118C39.8424 3.2683 39.977 3.65527 39.9973 4.05642C40.0176 4.45756 39.9227 4.85614 39.7239 5.20511L36.1028 11.5673C36.4333 20.7485 33.8817 27.157 28.4416 31.5718C25.5574 33.9129 21.4268 35.2413 16.8941 35.6518C12.3256 36.0645 7.16131 35.5655 2.02861 34.0666C1.59007 33.9386 1.20503 33.6715 0.931601 33.3056C0.658176 32.9396 0.511206 32.4946 0.51287 32.0378C0.514534 31.581 0.664741 31.1371 0.940824 30.7732C1.21691 30.4092 1.60388 30.1449 2.04335 30.0202C4.62444 29.2854 6.59078 28.6517 8.36554 27.5423C5.8413 26.2033 3.98232 24.4517 2.66652 22.4559C0.839125 19.6811 0.161221 16.5863 0.0264819 13.7968C-0.108257 11.0073 0.293854 8.42199 0.719123 6.55881C0.961231 5.49564 1.24334 4.43036 1.63282 3.4114C1.7702 3.05221 2.00335 2.73752 2.30694 2.50147C2.61053 2.26543 2.97088 2.11705 3.35284 2.07243Z" fill="#FFFFEB"/>
</svg>
