<svg width="37" height="35" viewBox="0 0 37 35" fill="none" xmlns="http://www.w3.org/2000/svg">
<path d="M33.9487 35L21.4047 22.75C20.4091 23.5278 19.2642 24.1435 17.97 24.5972C16.6758 25.0509 15.2986 25.2778 13.8385 25.2778C10.2213 25.2778 7.16028 24.0541 4.65546 21.6067C2.15064 19.1593 0.897568 16.17 0.89624 12.6389C0.89624 9.10648 2.14931 6.11722 4.65546 3.67111C7.1616 1.225 10.2226 0.0012963 13.8385 0C17.4556 0 20.5173 1.2237 23.0235 3.67111C25.5296 6.11852 26.782 9.10778 26.7807 12.6389C26.7807 14.0648 26.5484 15.4097 26.0838 16.6736C25.6192 17.9375 24.9887 19.0556 24.1922 20.0278L36.7362 32.2778L33.9487 35ZM13.8385 21.3889C16.3273 21.3889 18.4432 20.5385 20.1861 18.8378C21.929 17.137 22.7998 15.0707 22.7985 12.6389C22.7985 10.2083 21.9277 8.14269 20.1861 6.44194C18.4446 4.7412 16.3287 3.89019 13.8385 3.88889C11.3496 3.88889 9.23435 4.73991 7.49279 6.44194C5.75123 8.14398 4.87979 10.2096 4.87846 12.6389C4.87846 15.0694 5.74991 17.1357 7.49279 18.8378C9.23568 20.5398 11.3509 21.3902 13.8385 21.3889Z" fill="#282E47"/>
</svg>
